# xmcd CD database file
#
# Track frame offsets:
#	150
#	27316
#	42494
#	65690
#	94313
#	119775
#	139474
#	162708
#	183392
#	204688
#	226268
#	255094
#
# Disc length: 3745 seconds
#
# Revision: 2
# Processed by: cddbd v1.5.2PL0 Copyright (c) Steve Scherf et al.
# Submitted via: CDex 1.70beta1
#
DISCID=b70e9f0c
DTITLE=影山ヒロノブ - Cold Rain
DYEAR=2005
DGENRE=J-Pop
TTITLE0=Cold Rain
TTITLE1=Achilles
TTITLE2=Little Wing
TTITLE3=この世の果て?Eden?
TTITLE4=Face
TTITLE5=Riding on a Time machine?サイケデリック☆55
TTITLE6=1981 Summer
TTITLE7=Strings of Love?運命の糸
TTITLE8=Cry for the Earth
TTITLE9=Brother
TTITLE10=Young and Innocent
TTITLE11=In my Heart
EXTD=YEAR: 2005
EXTT0=
EXTT1=
EXTT2=
EXTT3=
EXTT4=
EXTT5=
EXTT6=
EXTT7=
EXTT8=
EXTT9=
EXTT10=
EXTT11=
PLAYORDER=
